<?xml version="1.0" standalone="no"?>
<!DOCTYPE svg PUBLIC "-//W3C//DTD SVG 20010904//EN"
 "http://www.w3.org/TR/2001/REC-SVG-20010904/DTD/svg10.dtd">
<svg version="1.0" xmlns="http://www.w3.org/2000/svg"
 width="300.000000pt" height="650.000000pt" viewBox="0 0 300.000000 650.000000"
 preserveAspectRatio="xMidYMid meet">
<metadata>
Created by potrace 1.10, written by Peter Selinger 2001-2011
</metadata>
<g transform="translate(0.000000,650.000000) scale(0.100000,-0.100000)"
fill="#000000" stroke="none">
<path d="M255 6491 c-93 -16 -180 -84 -225 -176 l-25 -50 0 -3015 0 -3015 25
-50 c31 -64 91 -124 155 -155 l50 -25 1265 0 1265 0 50 25 c64 31 124 91 155
155 l25 50 0 3015 0 3015 -25 50 c-31 64 -91 124 -155 155 l-50 25 -1235 1
c-679 1 -1253 -1 -1275 -5z m2545 -50 c61 -32 107 -76 138 -136 l27 -50 0
-3005 0 -3005 -27 -50 c-31 -60 -77 -104 -138 -136 l-45 -24 -1255 0 -1255 0
-45 24 c-61 32 -107 76 -138 136 l-27 50 0 3005 0 3005 24 45 c42 82 114 140
196 161 17 4 586 6 1265 6 l1235 -2 45 -24z"/>
<path d="M1082 6359 c-13 -46 -26 -90 -31 -97 -6 -10 -26 -7 -96 13 -119 35
-190 71 -231 119 -19 22 -34 34 -34 26 0 -30 88 -98 167 -128 73 -28 212 -62
254 -62 22 0 59 37 59 59 0 35 15 44 54 31 45 -15 74 -6 82 26 9 35 -10 51
-67 59 -36 5 -49 11 -50 23 0 10 -7 -16 -14 -56 -17 -96 -35 -122 -81 -122
-30 0 -35 3 -29 18 17 41 46 154 43 164 -2 6 -14 -27 -26 -73z m191 25 c20 -6
23 -49 3 -57 -7 -3 -31 -1 -53 5 -36 9 -39 12 -35 39 5 31 13 33 85 13z"/>
<path d="M755 6418 c10 -26 203 -108 255 -108 21 0 40 19 40 41 0 17 -73 51
-137 64 -15 3 6 -7 47 -22 73 -27 99 -53 66 -66 -33 -13 -215 51 -259 90 -15
15 -17 15 -12 1z"/>
<path d="M975 6419 c26 -10 83 -11 88 -1 3 4 -20 7 -51 8 -36 0 -49 -2 -37 -7z"/>
<path d="M1704 6397 c-19 -22 -24 -40 -24 -82 0 -55 -8 -65 -53 -65 -12 0 -29
-5 -37 -10 -13 -8 -12 -13 7 -32 21 -21 25 -21 60 -9 31 12 38 12 41 0 9 -27
88 -94 125 -106 20 -6 37 -7 37 -2 0 5 15 9 33 9 49 0 129 44 182 101 52 56
89 130 80 159 -8 25 -62 70 -83 70 -14 -1 -13 -3 3 -12 37 -20 65 -51 65 -72
0 -59 -103 -180 -184 -217 -63 -29 -107 -25 -142 12 l-29 32 37 -7 c54 -10 56
10 4 36 -31 15 -42 25 -33 30 7 5 2 8 -16 8 -36 0 -28 -12 23 -35 22 -10 40
-22 40 -26 0 -8 -50 4 -70 16 -23 14 -7 -12 33 -54 44 -46 31 -50 -30 -8 -25
17 -60 65 -69 94 0 2 -19 -5 -42 -14 -34 -13 -44 -13 -57 -3 -21 17 -10 30 26
30 53 0 68 14 62 60 -6 45 15 110 28 88 7 -10 9 -11 9 0 0 7 15 19 33 27 l32
14 -34 -2 c-23 -1 -41 -11 -57 -30z"/>
<path d="M2390 6403 c-34 -18 -54 -23 -82 -19 -54 9 -72 -13 -65 -79 7 -65 33
-120 65 -134 21 -10 28 -9 48 10 31 29 96 35 163 15 47 -14 60 -14 124 0 40 8
86 19 102 24 17 5 63 18 103 30 41 12 72 23 69 26 -2 2 -60 -11 -128 -30 -138
-37 -218 -51 -247 -41 -29 9 -52 65 -52 127 0 34 -6 61 -16 74 -15 18 -15 18
-5 -3 6 -12 11 -48 11 -80 0 -37 6 -67 15 -79 22 -28 18 -34 -14 -23 -33 12
-105 -3 -133 -28 -37 -33 -86 23 -96 112 -8 77 45 94 83 27 15 -25 15 -18 0
19 -5 13 4 19 39 29 25 7 53 21 62 31 22 24 10 22 -46 -8z"/>
<path d="M2503 6400 c34 -40 50 -94 44 -146 -2 -24 -1 -41 4 -38 15 9 10 102
-6 141 -17 41 -43 73 -57 73 -6 0 1 -13 15 -30z"/>
<path d="M2676 6414 c-19 -50 18 -104 71 -104 34 0 80 26 94 53 l12 22 -25
-22 c-73 -68 -170 -37 -143 46 7 24 0 29 -9 5z"/>
<path d="M1750 6381 c-13 -11 -27 -18 -31 -15 -4 2 -9 -3 -13 -11 -6 -17 9
-21 19 -5 11 17 27 11 21 -7 -4 -11 2 -8 14 7 11 14 20 31 20 38 0 15 0 15
-30 -7z"/>
<path d="M334 6356 c-3 -8 -11 -13 -19 -10 -7 3 -15 -2 -18 -10 -3 -8 -14 -12
-25 -9 -14 3 -21 -2 -25 -19 -10 -34 -8 -48 4 -48 5 0 7 5 4 10 -3 6 -3 20 0
31 7 21 7 21 25 1 11 -11 42 -28 71 -37 36 -12 47 -20 38 -26 -10 -6 -6 -9 13
-9 37 0 58 -10 58 -27 0 -15 -6 -15 -115 3 -21 3 -25 2 -15 -4 8 -5 41 -13 73
-17 39 -4 57 -11 57 -21 0 -19 -10 -18 -92 7 -39 11 -72 19 -74 16 -3 -2 32
-14 76 -27 72 -20 92 -35 74 -52 -3 -4 -24 0 -47 7 -120 38 -150 46 -154 41
-3 -3 23 -13 58 -23 63 -18 64 -18 29 -24 -30 -5 -28 -6 16 -6 28 0 59 -5 68
-10 16 -9 15 -13 -9 -41 -26 -31 -30 -32 -101 -32 -67 0 -74 2 -74 20 0 23 4
24 28 9 12 -7 35 -8 77 0 l60 10 -65 -2 c-64 -2 -65 -1 -68 25 -2 19 2 28 15
31 16 4 16 5 1 6 -9 0 -20 -3 -23 -9 -3 -5 -13 -10 -22 -10 -12 0 -14 7 -10
35 3 21 2 33 -4 30 -5 -4 -9 -22 -9 -41 0 -27 4 -34 20 -34 11 0 20 -4 20 -10
0 -5 -7 -10 -16 -10 -11 0 -14 -8 -12 -32 2 -25 8 -33 23 -33 11 0 25 -6 31
-14 6 -8 17 -11 25 -8 10 4 9 6 -3 6 -10 1 -18 6 -18 11 0 6 19 10 43 9 34 -1
37 -2 17 -8 -25 -7 308 -21 502 -21 80 0 98 3 98 15 0 24 -307 221 -508 327
-73 38 -94 45 -98 34z m66 -32 c22 -15 39 -29 36 -31 -6 -6 -96 40 -96 49 0
14 20 8 60 -18z m-12 -24 c44 -21 62 -35 62 -48 0 -18 -5 -18 -75 12 -52 22
-75 36 -75 49 0 24 15 22 88 -13z m205 -85 c80 -48 95 -60 85 -72 -21 -25 -94
-63 -179 -93 -103 -35 -89 -39 19 -5 45 14 102 42 134 64 l55 40 104 -70 c57
-38 106 -74 108 -80 2 -8 -68 -9 -265 -4 -148 4 -270 8 -272 10 -1 1 13 18 32
38 19 20 40 53 46 73 12 36 9 115 -6 164 -7 24 -7 24 17 9 13 -9 68 -42 122
-74z"/>
<path d="M2275 6340 c-4 -6 1 -7 12 -3 15 5 16 3 6 -8 -7 -7 -13 -20 -12 -28
0 -9 5 -5 10 9 10 24 11 24 25 6 8 -11 14 -15 14 -9 0 10 -32 43 -43 43 -3 0
-9 -4 -12 -10z"/>
<path d="M1785 6328 c-11 -7 -29 -12 -39 -13 -11 -1 -22 -7 -24 -14 -3 -9 7
-7 34 4 l38 16 -22 -24 c-27 -29 -28 -47 -3 -47 10 0 33 -3 50 -6 20 -4 31 -3
31 5 0 6 -19 11 -47 11 l-47 0 39 40 c38 39 33 53 -10 28z"/>
<path d="M278 6251 c7 -4 12 -12 11 -17 -3 -18 1 -34 10 -34 4 0 6 11 4 24 -4
17 0 25 14 29 10 3 2 5 -17 6 -22 0 -30 -2 -22 -8z"/>
<path d="M1292 6246 c-66 -22 -112 -74 -112 -127 0 -16 -4 -19 -17 -14 -58 24
-167 32 -223 16 -25 -7 -24 -8 34 -69 66 -69 105 -87 174 -78 l47 7 -27 -22
c-29 -21 -35 -43 -18 -69 8 -12 15 -9 45 20 30 29 35 31 35 14 1 -39 38 -103
71 -120 66 -34 183 -1 262 75 69 64 84 117 47 164 -15 18 -20 40 -20 82 0 46
-4 60 -24 80 -44 44 -195 67 -274 41z m200 -18 c21 -6 50 -23 64 -37 23 -23
25 -31 20 -74 -6 -42 -4 -52 19 -79 31 -36 28 -64 -11 -115 -34 -45 -84 -81
-144 -104 -91 -34 -144 -18 -179 54 -26 54 -27 83 -1 97 16 9 20 8 21 -7 0
-10 3 -13 6 -6 6 16 -15 81 -29 90 -8 4 -9 0 -5 -11 10 -26 -7 -11 -37 33 -25
36 -27 43 -17 74 13 38 44 71 81 86 35 14 165 13 212 -1z m-340 -133 c41 -21
88 -64 88 -81 0 -14 -16 -20 -80 -28 -66 -9 -108 7 -167 66 -51 51 -53 53 -31
60 37 12 154 1 190 -17z m68 -145 c-61 -55 -70 -59 -70 -30 0 13 19 30 58 53
31 19 59 32 62 30 2 -2 -20 -26 -50 -53z"/>
<path d="M1062 6044 c31 -15 70 -26 110 -29 l63 -4 -64 10 c-34 5 -80 19 -102
29 -21 11 -42 20 -46 20 -4 -1 13 -12 39 -26z"/>
<path d="M73 6235 c11 -37 27 -110 27 -126 0 -8 -9 -25 -20 -37 -12 -12 -17
-22 -12 -22 17 0 42 37 42 61 0 29 -26 128 -36 138 -3 3 -4 -3 -1 -14z"/>
<path d="M2842 6163 c-64 -22 -46 -25 23 -4 33 11 51 19 40 19 -11 0 -39 -6
-63 -15z"/>
<path d="M2129 6123 c-135 -69 -420 -297 -454 -364 -37 -71 -9 -79 290 -78
260 1 389 9 406 26 18 18 11 150 -11 232 -38 137 -91 211 -150 211 -15 0 -52
-12 -81 -27z m150 -33 c43 -59 81 -181 88 -276 5 -78 5 -82 -18 -97 -16 -10
-52 -15 -106 -16 -82 -2 -83 -1 -83 23 0 28 -51 76 -81 76 -32 0 -74 -26 -87
-55 -15 -32 -15 -35 -2 -35 6 0 10 8 10 18 0 53 96 77 131 33 11 -13 19 -32
19 -42 0 -20 -1 -20 -142 -25 -39 -1 -62 3 -69 12 -15 18 -49 18 -74 1 -15
-10 -41 -12 -100 -8 -77 6 -80 7 -80 31 0 25 12 29 46 16 11 -5 19 -1 23 10 5
13 4 14 -7 6 -10 -9 -18 -8 -31 1 -15 11 -13 16 22 50 30 30 41 35 49 25 12
-16 23 -69 13 -63 -12 8 -33 -23 -26 -40 9 -23 45 -18 55 8 5 12 5 24 1 27 -5
3 -15 25 -23 49 l-16 44 31 26 c17 14 48 39 69 54 37 27 38 27 48 8 16 -29 13
-72 -6 -93 -17 -19 -78 -25 -88 -8 -3 6 -12 10 -18 10 -31 -1 31 -30 63 -30
60 0 93 59 65 114 -8 16 -15 30 -15 31 0 8 116 85 128 85 21 0 37 -47 23 -64
-7 -8 -18 -13 -25 -10 -13 5 -61 -44 -52 -53 3 -4 15 6 27 21 12 15 24 25 26
22 3 -3 14 -1 24 5 23 12 25 52 4 69 -22 18 -19 28 14 45 28 14 30 14 64 -24
51 -57 64 -79 91 -159 23 -66 23 -72 7 -72 -25 0 -41 -20 -41 -51 0 -18 -6
-28 -20 -32 -20 -5 -27 -31 -11 -41 5 -4 7 2 5 11 -3 12 3 22 18 28 16 7 23
19 23 40 0 23 5 31 22 33 19 3 23 -4 31 -50 l10 -53 1 41 c0 23 -10 81 -24
129 -26 87 -60 149 -109 194 -31 29 -21 41 36 41 33 0 42 -6 67 -40z m-459
-345 c0 -8 -9 -15 -20 -15 -11 0 -20 7 -20 15 0 8 9 15 20 15 11 0 20 -7 20
-15z m115 -45 c4 -6 -8 -10 -30 -10 -22 0 -34 4 -30 10 3 6 17 10 30 10 13 0
27 -4 30 -10z"/>
<path d="M2133 6034 c-3 -8 -1 -20 5 -26 16 -16 42 -1 41 24 l-2 23 -4 -22
c-2 -13 -11 -23 -20 -23 -10 0 -14 6 -10 20 6 24 -1 27 -10 4z"/>
<path d="M2130 5965 c-16 -19 -5 -47 17 -43 22 4 29 43 9 51 -8 3 -20 -1 -26
-8z"/>
<path d="M2202 5867 c-11 -24 -25 -48 -31 -51 -16 -10 -14 -26 3 -26 22 0 78
69 74 93 -5 36 -26 29 -46 -16z m38 14 c0 -22 -46 -81 -63 -81 -6 0 -1 10 11
23 11 12 24 34 27 50 8 31 25 37 25 8z"/>
<path d="M2038 5860 c24 -22 42 -30 70 -30 54 0 69 19 34 42 -15 10 -34 18
-42 17 -8 0 -3 -5 12 -10 14 -6 29 -17 32 -25 10 -26 -67 -18 -98 11 -15 14
-30 25 -34 25 -4 0 8 -14 26 -30z"/>
<path d="M1973 5834 c-3 -8 -1 -20 5 -26 16 -16 42 -2 42 22 0 24 -38 28 -47
4z"/>
<path d="M1920 5800 c13 -9 13 -10 0 -10 -12 0 -13 -2 -1 -9 10 -6 6 -11 -15
-19 -16 -6 -22 -11 -13 -11 9 -1 27 8 40 19 21 17 22 21 9 30 -8 5 -19 10 -25
10 -5 0 -3 -5 5 -10z"/>
<path d="M2777 6134 c-3 -4 -28 -10 -54 -15 -58 -11 -153 -48 -153 -60 0 -5
-8 -9 -18 -9 -10 0 -46 -10 -81 -21 l-62 -21 21 -20 c11 -11 28 -17 38 -15 14
4 14 5 -2 6 -20 1 -20 1 -1 15 18 13 18 14 -10 10 -28 -4 -28 -4 -7 6 13 5 36
8 50 5 22 -4 24 -4 7 4 -17 8 -14 10 22 16 24 4 48 14 54 21 12 14 128 54 157
54 12 0 10 -6 -8 -25 -18 -20 -33 -25 -69 -25 -25 0 -53 -5 -61 -10 -10 -7 0
-8 35 -5 l50 5 -41 -20 c-31 -15 -48 -17 -71 -11 -24 7 -32 5 -41 -10 -7 -11
-19 -19 -27 -19 -8 0 -15 -5 -15 -10 0 -24 33 -20 111 14 45 20 90 36 99 36
10 0 52 18 95 40 43 22 91 40 108 40 17 0 27 3 24 7 -4 3 -39 5 -78 4 -48 -2
-69 1 -64 8 7 12 2 15 -8 5z m13 -54 c-72 -38 -92 -38 -55 0 23 24 37 30 69
30 l41 -1 -55 -29z m-201 -75 c-3 -2 -23 -12 -45 -21 l-39 -16 19 21 c11 11
30 21 44 21 14 0 23 -2 21 -5z"/>
<path d="M2855 5971 c-27 -16 -75 -50 -105 -76 -76 -66 -94 -76 -148 -86 -26
-5 -52 -16 -58 -24 -10 -13 -17 -11 -53 16 -24 17 -45 28 -48 25 -3 -3 -6 -22
-7 -43 l-1 -38 51 -9 c40 -7 54 -15 66 -37 29 -50 71 -64 188 -64 96 0 214 21
182 32 -7 3 -27 0 -45 -7 -17 -6 -70 -14 -117 -17 -83 -5 -85 -4 -96 20 -9 19
-8 26 5 35 14 9 14 12 2 20 -11 8 -10 12 8 23 29 19 27 39 -5 39 -17 0 -23 4
-18 13 4 6 -2 3 -14 -7 -12 -11 -22 -20 -22 -21 0 0 17 1 38 3 l37 3 -25 -20
c-14 -11 -31 -21 -37 -21 -7 0 -13 -5 -13 -11 0 -6 8 -8 19 -4 11 3 22 1 26
-5 3 -5 -3 -10 -14 -10 -27 0 -35 -17 -11 -23 22 -6 28 -27 8 -27 -21 0 -76
38 -88 60 -6 12 -10 33 -8 48 3 26 22 36 113 55 6 2 49 33 95 71 47 38 108 79
135 92 29 14 41 24 30 24 -11 0 -42 -13 -70 -29z m-352 -190 c50 -31 48 -45
-5 -37 -22 4 -45 9 -50 12 -16 10 -6 60 11 52 3 -2 23 -14 44 -27z"/>
<path d="M86 5940 c9 -16 18 -30 20 -30 3 0 2 5 -1 10 -11 18 11 11 29 -9 17
-19 17 -20 -4 -23 l-22 -3 23 -20 c14 -12 19 -13 11 -4 -10 14 -10 18 2 22 10
4 27 -11 50 -44 20 -27 34 -49 32 -49 -6 0 -115 67 -132 80 -8 7 -17 10 -21 7
-3 -4 23 -23 57 -44 34 -21 75 -50 91 -65 16 -15 64 -46 106 -69 41 -23 78
-50 80 -60 3 -9 31 -31 63 -48 76 -40 91 -40 20 1 -47 27 -52 32 -35 39 17 7
16 8 -7 8 -20 1 -35 12 -57 45 -17 24 -31 49 -33 56 -4 17 -108 114 -139 130
-28 15 -22 8 50 -50 52 -43 53 -45 30 -51 l-24 -7 24 -1 c23 -1 39 -15 62 -55
9 -15 1 -13 -41 10 -36 21 -63 46 -91 89 -22 33 -41 64 -42 70 -1 5 -10 14
-19 20 -9 5 -35 25 -57 43 l-40 33 15 -31z"/>
<path d="M883 5868 c-11 -13 -26 -34 -33 -46 -8 -17 -18 -22 -33 -18 -57 13
-127 18 -127 8 0 -6 8 -13 18 -16 9 -3 39 -25 65 -49 43 -40 47 -47 41 -78 -4
-19 -15 -46 -25 -61 -11 -14 -19 -37 -19 -50 0 -13 -5 -29 -11 -35 -8 -8 -8
-17 0 -31 6 -11 8 -28 5 -36 -4 -9 0 -31 7 -49 8 -17 12 -40 11 -49 -2 -11 21
-34 65 -67 37 -27 80 -59 95 -71 35 -27 144 -78 184 -86 29 -5 32 -3 43 27 13
39 14 119 1 177 -9 37 -7 46 12 72 17 23 19 33 10 42 -7 7 -12 20 -12 30 0 23
-33 41 -48 26 -7 -7 -15 -1 -27 23 -10 19 -33 53 -51 76 -19 23 -34 52 -34 66
0 34 -23 52 -49 38 -15 -9 -23 -7 -37 6 -14 14 -16 29 -10 95 7 86 -2 98 -41
56z m65 -182 c74 -47 135 -130 177 -240 31 -82 31 -86 2 -86 -21 0 -25 7 -36
64 -7 36 -18 72 -24 80 -16 21 -76 23 -115 3 -18 -9 -40 -13 -48 -10 -32 12
-10 -19 59 -82 l73 -67 -28 -28 c-15 -16 -28 -34 -28 -42 1 -7 7 -1 15 13 19
34 76 61 123 57 36 -3 37 -5 46 -51 4 -26 5 -69 1 -95 l-8 -47 -12 62 c-6 35
-15 66 -20 70 -4 5 -5 -3 -1 -17 4 -14 9 -49 13 -77 l6 -53 -62 25 c-121 47
-167 89 -228 208 -35 67 -37 78 -38 162 0 50 4 109 9 132 9 45 5 53 -74 116
-20 17 -27 25 -15 21 11 -4 28 -6 38 -6 11 1 29 -9 40 -22 12 -12 16 -14 8 -4
-12 16 -12 18 2 18 8 0 18 -6 20 -12 3 -7 6 -4 7 7 1 28 26 60 33 43 3 -7 6
-4 6 8 1 11 4 24 9 28 4 4 8 -29 10 -73 l3 -81 37 -24z m-150 -143 c-1 -27 2
-64 6 -83 9 -40 61 -147 84 -173 33 -37 4 -23 -48 23 -30 27 -51 49 -46 50 6
0 21 -10 35 -22 15 -14 10 -6 -10 19 -20 24 -36 48 -37 55 -7 59 -10 75 -17
91 -4 10 -3 17 4 17 6 0 11 13 11 28 0 25 7 42 16 42 2 0 3 -21 2 -47z m259
-45 c11 -14 33 -97 33 -123 0 -11 -5 -15 -14 -12 -8 3 -17 1 -19 -6 -3 -7 -33
16 -72 54 l-67 66 34 16 c39 20 92 22 105 5z m106 -38 c-1 -22 2 -29 7 -20 14
23 23 4 10 -20 l-12 -22 -14 20 c-8 12 -17 35 -21 52 -5 28 -3 32 13 28 15 -3
19 -12 17 -38z"/>
<path d="M1352 5757 c-84 -31 -133 -102 -133 -192 0 -78 43 -150 111 -185 47
-24 138 -27 179 -5 61 31 111 127 111 209 -1 66 -61 152 -123 175 -36 14 -103
13 -145 -2z m136 -12 c77 -33 112 -86 112 -172 -1 -170 -152 -259 -284 -166
-58 41 -89 104 -84 175 5 71 37 116 110 152 60 30 93 32 146 11z"/>
<path d="M1317 5683 c-4 -3 -7 -22 -7 -41 0 -30 -2 -33 -15 -22 -9 7 -18 10
-22 6 -8 -8 -3 -12 23 -20 19 -6 22 -2 27 36 6 45 5 52 -6 41z"/>
<path d="M1375 5657 c-19 -19 -35 -30 -35 -24 0 6 -3 8 -6 4 -3 -3 -3 -11 1
-18 6 -8 13 -5 26 12 l19 24 -6 -32 c-4 -21 -3 -33 4 -33 6 0 9 7 5 16 -3 8 4
29 17 46 32 43 17 47 -25 5z"/>
<path d="M1420 5603 c45 -8 43 -21 -4 -28 -25 -4 -46 -10 -46 -14 0 -4 18 -17
40 -30 22 -12 42 -27 46 -33 10 -15 -35 0 -68 23 -32 23 -33 21 -14 -26 20
-46 6 -45 -22 3 -12 20 -22 31 -22 23 0 -21 49 -81 66 -81 13 0 13 4 -1 30
-21 40 -19 43 15 25 33 -17 70 -20 70 -5 0 5 -21 22 -47 37 l-47 28 34 10 c19
5 41 14 49 19 19 12 -5 26 -44 24 -27 -1 -28 -1 -5 -5z"/>
<path d="M105 5699 c24 -25 33 -39 22 -35 -11 3 -31 8 -45 11 -26 5 -26 5 3
-9 17 -9 35 -15 41 -16 6 0 17 -7 24 -15 7 -8 51 -27 99 -41 47 -14 95 -34
106 -44 11 -10 33 -24 50 -30 42 -16 197 -51 202 -46 2 2 -38 14 -91 26 -95
22 -124 37 -206 109 -19 17 -29 31 -22 31 15 0 107 -45 144 -71 14 -11 34 -19
44 -19 27 0 -159 99 -187 100 -9 0 -27 8 -40 19 -29 22 -95 56 -129 65 -14 4
6 -9 45 -28 91 -47 99 -56 49 -56 -32 0 -47 8 -87 45 -60 57 -74 59 -22 4z
m187 -89 l33 -30 -74 25 c-41 14 -77 27 -79 30 -3 3 16 5 41 5 38 0 53 -6 79
-30z"/>
<path d="M445 5686 c28 -26 49 -51 48 -57 -2 -5 5 -9 15 -9 30 0 147 -75 146
-93 -2 -19 11 -23 21 -7 9 15 -34 51 -101 84 -32 17 -77 46 -99 66 -62 55 -86
68 -30 16z"/>
<path d="M1943 5600 c-36 -22 -55 -48 -74 -104 -23 -63 -51 -78 -139 -74 l-75
3 0 -40 c0 -40 0 -40 40 -42 l40 -1 -35 6 c-31 6 -35 11 -35 37 l0 30 73 -3
c93 -5 114 9 152 94 20 44 39 70 62 84 35 21 83 26 108 10 11 -7 12 -10 2 -10
-19 0 -100 -59 -107 -79 -4 -10 5 -6 22 10 73 68 135 79 178 33 33 -36 34 -84
3 -84 -13 -1 -34 -7 -47 -14 -22 -12 -20 -13 26 -9 48 5 50 4 62 -26 23 -55
-8 -110 -74 -131 -28 -9 -28 -9 8 -4 43 6 46 -4 14 -41 -34 -40 -91 -44 -142
-10 -22 15 -33 20 -25 11 7 -10 30 -26 49 -36 l36 -18 -27 -7 c-47 -12 -81 4
-138 64 -30 32 -71 68 -90 81 -19 13 -47 34 -62 48 -16 14 -26 19 -25 11 4
-27 32 -56 62 -63 19 -5 55 -34 96 -78 62 -66 69 -71 115 -75 38 -4 53 -1 63
11 7 9 24 16 38 16 30 0 83 51 83 79 0 12 9 30 20 41 25 25 28 101 4 121 -10
8 -13 21 -9 36 7 29 -17 88 -43 102 -80 43 -161 51 -209 21z"/>
<path d="M570 5544 l25 -15 -25 5 c-69 15 -70 14 -10 -7 53 -20 65 -28 64 -46
-1 -22 10 -28 21 -11 12 20 -7 51 -45 70 -46 23 -66 26 -30 4z"/>
<path d="M2908 5531 c-21 -23 -40 -31 -98 -41 -83 -14 -109 -9 -170 31 -35 24
-51 29 -75 24 -16 -4 -53 -7 -81 -6 -32 1 -70 -7 -98 -19 -40 -17 -49 -27 -71
-75 -21 -49 -23 -63 -16 -121 7 -61 10 -67 57 -108 47 -42 50 -43 120 -44 64
0 74 2 95 24 12 13 30 24 40 24 10 0 27 12 39 27 11 15 34 34 49 44 19 11 31
29 35 51 7 39 31 55 129 88 37 12 67 25 67 30 0 9 -156 -45 -176 -61 -11 -9
-14 -8 -14 1 0 7 -8 18 -17 25 -15 11 -15 15 -4 29 7 9 28 16 45 17 17 0 55 6
84 12 43 10 57 18 74 45 25 40 19 41 -14 3z m-419 -12 c24 -9 35 -9 44 0 19
19 68 12 122 -19 44 -25 52 -34 48 -51 -4 -13 0 -25 9 -30 21 -12 7 -99 -18
-114 -10 -5 -29 -22 -43 -37 -14 -16 -31 -28 -37 -28 -7 0 -27 -12 -44 -27
-27 -22 -42 -27 -97 -28 -59 -1 -66 1 -88 27 -13 15 -28 28 -34 28 -22 0 -41
46 -41 101 0 76 30 146 67 159 15 6 35 14 43 19 20 13 31 13 69 0z"/>
<path d="M2537 5479 c-9 -5 -22 -7 -27 -4 -17 10 -120 -6 -136 -22 -7 -8 -13
-26 -13 -41 l2 -27 4 25 c7 35 23 52 46 46 10 -2 29 0 42 6 15 7 29 7 41 0 16
-9 16 -10 -4 -21 -12 -7 -22 -17 -22 -23 0 -6 9 -3 20 7 19 17 22 18 37 2 13
-13 15 -19 5 -29 -7 -7 -12 -16 -12 -22 0 -5 6 -1 14 9 13 18 13 18 24 -1 7
-11 12 -14 12 -6 0 8 -10 28 -22 44 -21 30 -21 31 -3 44 22 16 49 0 40 -23 -3
-9 0 -13 7 -10 19 6 48 -11 48 -28 0 -8 5 -15 10 -15 17 0 11 19 -12 40 -13
12 -32 30 -43 40 -23 22 -32 24 -58 9z"/>
<path d="M2362 5348 c-7 -7 -12 -26 -12 -43 0 -34 15 -55 39 -55 11 0 9 5 -7
16 -26 18 -31 74 -7 74 8 0 15 5 15 10 0 14 -13 13 -28 -2z"/>
<path d="M2549 5256 c-16 -17 -68 -24 -86 -13 -9 6 -11 3 -7 -7 5 -12 15 -15
48 -10 39 6 76 28 65 39 -3 2 -12 -2 -20 -9z"/>
<path d="M110 5510 c-50 -21 -27 -27 28 -8 28 11 38 10 64 -5 16 -9 40 -17 52
-17 13 0 35 -9 49 -20 14 -11 35 -20 47 -20 16 0 26 -12 42 -46 17 -40 18 -50
7 -71 -11 -20 -11 -26 1 -33 11 -7 2 -20 -39 -60 -51 -49 -56 -52 -94 -46 -28
5 -47 2 -64 -9 -18 -12 -39 -14 -86 -10 -68 5 -60 -8 11 -19 29 -4 51 -2 71 8
15 8 47 14 70 13 36 -1 46 4 83 40 24 23 56 49 72 57 l30 15 -28 11 c-27 10
-28 11 -11 30 10 11 14 24 9 31 -5 9 -2 10 12 5 10 -4 59 -12 109 -16 73 -7
93 -6 106 6 8 8 25 14 37 14 29 0 30 -36 1 -45 -19 -6 -20 -8 -4 -26 17 -18
15 -49 -3 -49 -5 0 -26 14 -47 30 -40 32 -67 36 -140 21 -35 -8 -31 -9 36 -10
56 -1 80 -5 90 -17 20 -24 64 -43 78 -34 9 5 12 20 9 41 -3 21 0 38 8 47 21
20 17 41 -11 54 -19 9 -29 7 -51 -7 -23 -15 -41 -17 -103 -12 -101 8 -133 21
-151 59 -9 20 -25 35 -42 39 -15 4 -39 17 -54 28 -15 12 -38 21 -53 21 -14 0
-35 7 -45 15 -25 19 -41 18 -96 -5z"/>
<path d="M161 5471 c-19 -3 -36 -13 -39 -21 -4 -12 -2 -13 9 -2 17 15 71 16
87 0 9 -9 12 -9 12 0 0 18 -32 29 -69 23z"/>
<path d="M1930 5364 c0 -25 46 -74 69 -74 10 1 5 7 -12 16 -16 9 -35 30 -42
47 -11 25 -14 28 -15 11z"/>
<path d="M335 5318 c-5 -12 -21 -25 -35 -29 l-25 -7 26 -1 c30 -1 52 20 47 44
-2 12 -5 11 -13 -7z"/>
<path d="M257 5317 c-4 -11 -12 -14 -24 -10 -16 6 -16 5 -4 -11 20 -25 -1 -46
-29 -28 -12 7 -20 8 -20 2 0 -5 12 -13 26 -16 39 -10 14 -26 -48 -29 -38 -2
-58 1 -71 13 -16 15 -17 15 -11 -1 8 -22 36 -28 99 -21 28 2 64 5 80 7 35 2
55 14 54 30 0 9 -2 9 -6 0 -5 -13 -45 -18 -55 -7 -3 3 1 18 9 35 8 16 13 35
11 41 -3 7 -7 6 -11 -5z"/>
<path d="M2826 5263 c-66 -34 -111 -63 -114 -75 -2 -10 -42 -41 -89 -69 -46
-28 -87 -57 -89 -64 -3 -7 -31 -29 -62 -48 -55 -34 -114 -87 -98 -87 5 0 3 -7
-4 -15 -15 -18 -23 -75 -11 -75 13 0 111 80 111 91 0 5 8 9 17 9 9 0 14 3 10
6 -3 4 10 29 29 58 18 28 34 55 34 61 0 5 27 27 60 48 33 20 60 35 60 31 0 -3
-11 -20 -25 -38 -14 -18 -25 -38 -25 -44 0 -7 -3 -12 -7 -12 -5 -1 -33 -24
-63 -52 -30 -28 -45 -45 -32 -39 12 7 46 34 75 61 29 27 61 56 72 65 19 14 19
15 1 8 -19 -6 -19 -6 0 26 41 70 85 109 174 155 49 26 90 49 90 51 0 7 4 9
-114 -52z m-312 -270 c-43 -59 -86 -103 -96 -97 -4 3 -8 -2 -8 -10 0 -8 -9
-20 -19 -25 -27 -15 -34 10 -13 40 9 13 15 26 12 29 -4 5 143 108 149 104 1
-2 -10 -20 -25 -41z"/>
<path d="M2889 5246 c-20 -14 -47 -28 -60 -32 -13 -4 -49 -34 -79 -68 -55 -60
-42 -55 35 15 22 20 61 48 87 63 26 14 50 31 53 36 9 15 3 12 -36 -14z"/>
<path d="M1510 5245 c-8 -9 -21 -13 -35 -9 -32 8 -90 -22 -126 -65 -130 -156
-174 -471 -72 -516 14 -6 23 -20 25 -39 4 -38 24 -45 39 -12 11 23 13 24 34
10 12 -8 24 -11 28 -8 3 3 23 -6 44 -20 74 -51 103 -32 177 121 83 170 129
338 112 407 -9 37 -45 66 -82 66 -19 0 -34 6 -38 15 -3 8 -12 15 -20 15 -7 0
-21 11 -30 25 -19 28 -38 32 -56 10z m44 -14 c3 -5 2 -22 -3 -37 -5 -16 -14
-56 -21 -89 -6 -33 -18 -75 -26 -93 -8 -18 -14 -45 -14 -60 0 -15 -12 -45 -25
-67 -14 -22 -25 -52 -25 -66 0 -14 -9 -34 -20 -44 -14 -13 -20 -31 -20 -62 0
-37 -4 -45 -25 -53 -14 -5 -30 -21 -35 -35 -5 -14 -14 -25 -20 -25 -19 0 -11
56 11 76 53 48 168 358 176 473 3 36 6 72 8 79 5 14 31 16 39 3z m-60 -76 c-1
-44 -14 -98 -49 -200 -54 -159 -86 -228 -123 -267 -32 -35 -54 -25 -78 37 -42
111 27 346 132 452 39 39 49 44 82 41 l37 -3 -1 -60z m118 20 c8 -19 8 -31 0
-50 -6 -14 -9 -32 -6 -40 4 -8 -1 -26 -10 -40 -9 -13 -16 -36 -16 -50 0 -14
-7 -28 -16 -32 -8 -3 -14 -15 -13 -27 2 -36 -1 -47 -11 -41 -10 6 -14 -6 -10
-38 1 -10 -7 -30 -16 -45 -10 -15 -17 -31 -16 -36 2 -4 -3 -18 -11 -30 -8 -13
-10 -32 -6 -51 l7 -30 1 32 c1 38 21 56 21 19 0 -35 -28 -103 -46 -110 -17 -7
-44 3 -44 15 0 5 11 19 25 31 26 23 34 63 13 70 -9 3 -8 9 5 22 9 10 16 27 16
39 -2 21 -2 21 -6 -1 -3 -13 -11 -26 -19 -29 -8 -3 -14 -15 -14 -27 0 -12 -6
-28 -12 -36 -7 -8 -3 -6 10 4 18 15 22 16 22 4 0 -20 -54 -78 -73 -78 -24 0
-31 19 -10 27 25 9 33 23 33 62 0 21 8 43 20 56 12 12 24 40 27 61 3 21 14 50
25 63 10 13 18 37 18 53 0 16 8 43 17 61 16 31 28 80 40 160 6 45 37 52 55 12z
m85 -29 c26 -22 28 -30 27 -88 -2 -79 -46 -214 -117 -358 -54 -109 -80 -135
-124 -124 l-21 6 24 35 c30 44 38 90 26 137 -9 30 -8 38 7 48 20 14 21 17 21
53 0 29 16 34 23 8 2 -10 3 -3 1 15 -3 32 9 44 19 18 9 -23 -13 -87 -38 -112
-13 -13 -21 -24 -16 -24 30 0 77 96 65 133 -4 12 3 28 20 46 35 36 44 92 22
126 -18 27 -14 85 5 85 12 0 11 -26 -2 -53 -10 -21 -10 -21 5 -3 19 24 20 48
4 64 -24 24 20 13 49 -12z m-57 -122 c0 -29 -22 -75 -45 -94 -14 -12 -18 -12
-25 1 -7 10 -2 17 15 27 14 7 25 15 25 18 0 3 -4 2 -10 -1 -6 -3 -10 5 -10 19
0 30 17 44 23 19 2 -10 3 -6 1 8 -2 15 0 29 3 33 11 11 23 -5 23 -30z"/>
<path d="M2841 5174 c-34 -31 -59 -60 -56 -65 3 -4 -29 -41 -70 -81 -65 -62
-75 -76 -70 -98 3 -16 2 -20 -3 -12 -6 10 -25 -4 -70 -53 -34 -36 -62 -72 -62
-80 0 -18 16 -20 26 -3 4 7 3 8 -4 4 -24 -15 -11 11 20 40 21 20 29 23 25 11
-4 -11 -3 -16 4 -12 6 4 8 13 5 20 -2 7 9 25 25 41 35 33 36 28 8 -36 -14 -33
-26 -47 -37 -45 -9 1 -11 0 -4 -2 15 -6 15 -13 -2 -36 -11 -14 -15 -15 -19 -5
-3 7 -6 4 -6 -7 -1 -14 -8 -21 -21 -21 -13 0 -19 5 -15 14 2 7 1 11 -4 8 -12
-8 -21 -46 -11 -46 5 0 10 -8 12 -17 2 -12 14 -2 43 36 22 29 62 74 89 99 27
26 61 70 77 97 15 28 37 55 48 62 11 7 41 43 67 80 26 37 61 81 78 96 l31 28
-37 -22 c-21 -11 -38 -25 -38 -31 0 -5 -4 -6 -10 -3 -5 3 -18 1 -27 -5 -16 -9
-15 -10 5 -5 12 4 22 2 22 -2 0 -14 -89 -133 -99 -133 -9 0 15 72 43 125 8 17
37 49 63 72 26 24 45 43 41 43 -4 0 -34 -25 -67 -56z m-92 -163 c-6 -17 -23
-38 -38 -47 -24 -14 -24 -14 -2 -8 l23 6 -18 -32 c-23 -38 -85 -112 -90 -107
-6 5 39 111 51 119 6 5 4 8 -5 8 -8 0 7 21 35 50 27 27 50 48 52 46 2 -1 -2
-17 -8 -35z"/>
<path d="M340 5119 c-25 -5 -93 -10 -152 -11 -59 -2 -108 -6 -108 -10 0 -11
119 -10 220 2 76 9 86 8 98 -7 7 -11 9 -19 3 -21 -5 -2 -1 -12 10 -23 24 -24
21 -28 -23 -40 -30 -8 -29 -8 10 -4 32 4 42 2 42 -9 0 -7 -10 -16 -22 -19 -44
-9 -280 -57 -284 -57 -2 0 -17 24 -34 53 -30 52 -43 51 -15 -3 13 -26 13 -29
-3 -33 -12 -3 -11 -5 6 -6 19 -1 23 -6 20 -28 -2 -21 -8 -28 -23 -26 -18 1
-18 0 -4 -11 15 -10 15 -15 2 -40 -8 -15 -12 -30 -10 -33 3 -3 13 9 22 26 8
17 21 31 28 31 8 0 8 3 -2 9 -10 6 -10 13 -2 29 8 15 28 23 78 31 38 7 106 21
152 32 46 10 86 18 88 15 4 -4 -18 -57 -27 -66 -3 -3 -5 -11 -5 -19 0 -14 -66
-39 -259 -96 -48 -14 -86 -28 -84 -30 2 -2 32 5 67 15 80 25 78 25 73 -9 -3
-25 1 -32 27 -46 18 -9 29 -20 26 -25 -4 -6 1 -7 11 -3 12 4 15 3 10 -6 -4 -6
-4 -10 1 -9 4 1 26 -8 48 -20 51 -27 41 -27 -69 1 -93 24 -118 42 -69 50 28 5
28 5 -2 3 -23 -1 -30 -6 -30 -20 0 -17 15 -23 98 -43 53 -12 106 -27 116 -33
15 -8 19 -6 17 6 -1 9 -40 39 -87 68 -57 36 -85 60 -87 74 -7 45 34 23 148
-80 35 -32 58 -58 52 -58 -7 0 -12 -6 -12 -14 0 -8 -4 -17 -9 -20 -10 -7 -111
22 -128 36 -9 7 -13 7 -13 0 0 -6 32 -21 70 -33 41 -14 70 -29 70 -36 0 -35
34 -76 78 -95 26 -12 62 -33 79 -49 18 -15 50 -31 70 -34 21 -3 54 -13 73 -22
41 -18 135 -35 200 -37 39 -1 45 2 48 21 4 24 -11 40 -83 93 -26 19 -66 51
-88 71 -23 20 -60 46 -82 57 -22 11 -52 36 -68 56 -34 44 -91 64 -136 48 -29
-10 -36 -8 -84 28 -29 22 -56 38 -62 37 -5 -2 -29 11 -53 30 -24 18 -51 33
-60 34 -9 0 21 12 68 25 127 37 124 35 149 104 l22 61 -29 72 c-17 39 -34 72
-39 73 -4 1 -28 -2 -53 -7z m51 -439 c24 -21 40 -39 34 -40 -5 0 -30 18 -55
40 -25 21 -40 39 -34 40 6 0 31 -18 55 -40z m129 -62 c-5 -17 -17 -40 -27 -51
-18 -19 -17 -20 4 -8 13 6 27 29 34 51 7 22 15 40 19 40 16 0 60 -43 60 -58 0
-9 -7 -30 -15 -46 -9 -16 -14 -31 -11 -33 2 -2 11 12 20 31 l16 35 35 -20 c28
-17 35 -27 35 -53 0 -19 -9 -42 -20 -54 -12 -12 -16 -22 -11 -22 14 0 38 38
46 73 l7 27 44 -40 c24 -22 48 -40 54 -40 14 0 12 -20 -5 -54 -13 -25 -13 -27
0 -16 8 6 17 20 20 31 6 17 9 16 48 -12 47 -34 61 -54 51 -70 -6 -11 -25 -9
-124 11 -30 7 -65 14 -78 16 l-23 5 25 30 c37 43 32 57 -4 15 -27 -31 -33 -33
-63 -25 -17 4 -45 11 -61 14 l-28 6 36 32 c19 18 38 46 42 62 5 26 3 25 -15
-11 -12 -22 -32 -47 -46 -54 -20 -11 -27 -10 -51 9 -15 11 -33 21 -41 21 -8 0
1 14 21 34 22 20 36 43 36 57 0 19 -4 15 -20 -18 -30 -67 -88 -71 -118 -9 -25
50 1 99 63 120 50 17 56 14 45 -26z"/>
<path d="M2140 5082 c-41 -6 -132 -33 -127 -38 3 -3 32 2 65 10 33 9 70 16 81
16 23 0 71 -27 71 -40 0 -5 -30 -18 -66 -30 -36 -12 -64 -24 -62 -26 2 -2 34
6 71 18 47 16 70 19 78 11 7 -7 -12 -21 -65 -46 -42 -20 -76 -38 -76 -41 0 -3
33 11 74 30 86 39 82 38 89 20 4 -10 -14 -26 -59 -51 -35 -20 -64 -38 -64 -41
0 -3 29 10 64 30 77 43 98 31 30 -16 -25 -18 -54 -39 -63 -46 -25 -21 7 -4 57
31 44 30 66 30 41 1 -12 -15 -132 -104 -140 -104 -2 0 -4 22 -3 50 0 28 -2 48
-4 45 -8 -8 -42 26 -42 42 0 21 -29 73 -41 73 -13 0 -41 27 -54 54 -6 11 -23
25 -39 31 -25 8 -31 6 -57 -23 -16 -17 -35 -32 -43 -32 -24 0 -56 -50 -56 -86
0 -19 -5 -54 -12 -79 -10 -38 -10 -50 5 -80 9 -19 21 -35 27 -35 5 0 10 -13
10 -30 0 -38 28 -55 64 -38 22 9 29 8 46 -7 20 -18 22 -18 54 -1 22 11 42 15
60 10 33 -8 76 27 76 61 0 15 14 31 43 50 92 60 127 95 127 126 0 43 -23 91
-64 137 -38 42 -55 50 -96 44z m-149 -73 c12 -25 26 -39 39 -39 21 0 40 -27
40 -56 0 -10 12 -31 28 -47 24 -25 27 -35 25 -84 -4 -77 -24 -107 -68 -100
-21 3 -40 0 -52 -8 -24 -19 -43 -18 -65 2 -16 14 -22 14 -43 3 -28 -15 -55 -1
-55 30 0 9 -9 25 -19 34 -28 25 -34 66 -17 106 8 19 12 47 9 62 -6 34 17 74
49 84 12 4 35 20 49 35 33 36 53 30 80 -22z"/>
<path d="M1916 4973 c-4 -4 -17 -8 -29 -8 -17 0 -22 -7 -24 -30 -2 -27 1 -24
13 14 3 10 7 11 18 2 10 -8 16 -9 21 -1 11 18 35 11 47 -14 6 -14 20 -26 31
-28 13 -2 23 -13 27 -28 3 -14 9 -20 12 -15 10 17 -10 55 -29 55 -10 0 -26 14
-35 30 -16 29 -37 38 -52 23z"/>
<path d="M1850 4855 c-7 -8 -10 -21 -7 -29 3 -7 1 -18 -4 -23 -12 -12 6 -63
22 -63 8 0 9 4 0 13 -6 8 -10 33 -8 57 2 32 8 45 22 51 16 6 16 8 4 8 -9 1
-22 -6 -29 -14z"/>
<path d="M1919 4848 c-12 -23 -12 -23 9 -5 15 14 21 15 25 5 2 -7 8 -10 12 -6
10 9 -3 28 -20 28 -8 0 -20 -10 -26 -22z"/>
<path d="M2057 4810 c6 -7 9 -18 7 -25 -3 -7 0 -16 6 -20 8 -5 8 -11 -1 -21
-14 -17 -3 -32 12 -17 15 15 -1 85 -21 91 -12 3 -12 2 -3 -8z"/>
<path d="M1915 4780 c-4 -6 5 -22 18 -36 21 -21 29 -24 46 -14 26 14 27 23 2
15 -21 -6 -64 22 -55 37 3 4 3 8 0 8 -3 0 -8 -5 -11 -10z"/>
<path d="M750 5039 c-112 -39 -200 -82 -229 -113 -15 -15 -25 -42 -28 -70 -5
-42 -3 -48 29 -80 67 -67 165 -70 348 -10 148 49 154 54 147 119 l-5 52 39 12
c46 14 65 41 49 71 -13 24 -35 25 -84 5 -37 -16 -38 -15 -66 15 -37 39 -86 39
-200 -1z m190 -9 c32 -34 73 -137 68 -171 -9 -70 -349 -150 -438 -104 -39 20
-70 62 -70 96 0 63 74 114 253 174 127 43 151 44 187 5z m148 -26 c4 -25 -15
-42 -56 -50 -27 -6 -33 -3 -41 17 -8 21 -5 26 28 41 45 21 65 19 69 -8z"/>
<path d="M850 5045 c0 -3 10 -25 22 -48 12 -23 32 -73 44 -112 26 -81 32 -71
8 13 -22 76 -74 179 -74 147z"/>
<path d="M701 4962 c-52 -14 -90 -27 -84 -29 5 -2 52 8 104 22 114 30 129 31
129 6 0 -15 -15 -25 -56 -41 -65 -24 -194 -46 -218 -37 -22 9 -20 22 7 36 22
11 22 11 -3 5 -39 -10 -48 -23 -26 -40 27 -19 76 -18 176 6 101 25 132 43 128
73 -4 31 -43 31 -157 -1z"/>
<path d="M712 4846 c-115 -34 -139 -46 -128 -65 11 -17 24 -13 22 6 -1 14 23
24 114 49 136 38 173 42 168 17 -4 -23 -59 -48 -144 -67 -38 -8 -58 -15 -45
-15 31 -1 138 27 174 45 20 11 27 21 25 37 -5 33 -55 31 -186 -7z"/>
<path d="M190 5046 c-52 -6 -81 -12 -65 -13 17 -2 82 3 145 11 63 7 93 13 65
13 -27 0 -93 -5 -145 -11z"/>
<path d="M205 4982 c-49 -9 -81 -18 -70 -19 11 -2 65 6 120 16 55 11 87 19 70
19 -16 0 -70 -8 -120 -16z"/>
<path d="M260 4895 c-69 -18 -119 -34 -112 -34 15 -1 255 58 261 65 9 9 -28 1
-149 -31z"/>
<path d="M2858 4883 c-53 -48 -78 -103 -78 -173 0 -69 13 -118 45 -161 13 -19
31 -47 38 -64 17 -36 57 -79 65 -71 3 4 -4 16 -15 29 -69 75 -71 181 -4 241
l20 19 -23 18 c-27 21 -36 24 -36 10 0 -5 9 -13 21 -16 l21 -7 -21 -19 c-11
-11 -24 -31 -27 -45 -9 -36 -28 -24 -35 22 l-6 39 -2 -38 c0 -21 6 -49 15 -62
8 -13 14 -34 12 -47 -3 -20 -7 -17 -27 22 -23 44 -27 73 -21 173 2 30 6 43 11
35 6 -9 9 -9 9 -1 0 6 15 32 34 56 19 25 31 49 28 53 -4 4 0 5 9 2 9 -4 16 -1
16 8 0 19 -2 19 -49 -23z"/>
<path d="M2877 4786 c-32 -14 -61 -51 -52 -66 8 -13 25 -13 25 1 0 5 -5 7 -11
3 -7 -4 -10 -1 -7 7 3 8 10 13 16 12 6 -2 9 4 6 12 -9 22 16 18 45 -7 25 -22
25 -22 7 -1 -19 23 -13 48 10 39 8 -3 14 -1 14 4 0 13 -18 11 -53 -4z"/>
<path d="M855 4685 c-14 -13 -25 -36 -25 -50 0 -29 40 -74 67 -76 41 -3 59 3
81 27 28 31 28 64 1 98 -28 36 -89 37 -124 1z m105 -52 c0 -44 -71 -49 -87 -6
-4 10 2 23 16 34 29 24 71 7 71 -28z"/>
<path d="M2310 4700 c-8 -5 -33 -7 -56 -4 -43 6 -74 -11 -74 -42 0 -8 -10 -14
-25 -14 -31 0 -50 -32 -35 -60 6 -11 8 -26 4 -33 -5 -8 -3 -8 9 1 13 11 14 18
5 32 -17 27 -3 50 32 50 25 0 30 4 30 24 0 29 30 42 60 26 15 -8 29 -8 54 1
40 14 71 7 111 -25 26 -21 29 -27 20 -52 -6 -16 -20 -33 -33 -39 -14 -6 -22
-18 -22 -34 0 -13 -7 -32 -15 -41 -14 -15 -14 -18 0 -30 19 -16 19 -44 1 -59
-8 -7 -14 -26 -14 -43 2 -49 -52 -66 -87 -28 -12 13 -25 18 -38 14 -12 -4 -27
2 -43 17 -13 12 -24 18 -24 12 0 -17 35 -43 59 -43 13 0 34 -9 48 -20 48 -37
92 -18 102 45 6 35 10 40 42 47 20 4 69 3 110 -1 41 -5 77 -6 80 -2 14 13 18
99 6 109 -7 5 -51 15 -99 22 -49 7 -88 16 -88 20 0 4 7 13 15 20 8 7 15 28 15
46 0 28 -7 38 -38 59 -44 29 -91 40 -112 25z m210 -184 c45 -8 84 -16 87 -19
3 -3 2 -23 -2 -44 l-6 -39 -99 1 c-54 0 -96 4 -93 8 3 4 -3 19 -12 34 -22 33
-9 45 46 41 32 -2 45 -8 47 -20 2 -12 -5 -18 -30 -21 l-33 -4 35 1 c26 1 36 6
38 20 5 24 -14 36 -60 36 -31 0 -38 4 -38 20 0 17 3 19 19 11 10 -6 56 -17
101 -25z"/>
<path d="M67 4629 c6 -6 10 -17 9 -23 -2 -6 -1 -7 2 -3 2 5 12 1 22 -8 18 -16
18 -17 -1 -36 -66 -66 44 -177 121 -121 23 17 30 19 39 8 6 -7 8 -16 5 -19 -8
-8 23 -57 36 -57 6 0 1 9 -10 20 -29 29 -25 48 5 20 14 -13 25 -29 25 -37 0
-7 4 -13 10 -13 12 0 92 -85 105 -112 14 -30 -13 -44 -90 -47 -58 -2 -65 0
-65 17 0 30 27 48 51 34 10 -7 25 -12 33 -12 8 0 17 -6 19 -12 3 -8 6 -6 6 5
1 11 -6 17 -19 17 -11 0 -29 6 -40 12 -27 17 -54 0 -58 -36 -3 -24 -7 -26 -35
-22 -18 3 -58 8 -89 11 -49 5 -58 10 -58 26 0 27 44 69 73 69 28 0 55 -26 67
-66 l8 -29 1 28 c1 37 -39 77 -77 77 -36 0 -78 -40 -84 -80 -5 -35 -1 -37 154
-49 115 -9 200 -3 220 17 25 25 -8 69 -188 247 -103 102 -191 185 -197 185 -8
0 -8 -3 0 -11z m163 -160 c0 -5 -11 -16 -25 -25 -66 -43 -151 49 -99 107 16
18 19 16 70 -28 30 -25 54 -49 54 -54z"/>
<path d="M1687 4572 c-37 -37 -67 -74 -67 -83 0 -27 -31 -61 -52 -56 -15 4
-31 -9 -66 -55 -65 -83 -66 -96 -2 -20 39 45 58 61 71 57 23 -8 59 28 59 58 0
13 21 44 51 75 55 57 61 61 53 35 -2 -10 1 -7 8 7 6 14 13 27 15 29 2 3 94
-34 112 -46 2 -1 -7 -41 -20 -90 -17 -65 -31 -98 -55 -125 -30 -33 -32 -40
-23 -67 9 -25 5 -40 -24 -103 -30 -65 -74 -118 -98 -118 -4 0 -21 12 -38 26
-21 18 -31 35 -31 54 0 34 34 131 101 288 27 63 48 116 46 118 -4 5 -124 -263
-144 -322 -8 -24 -13 -64 -11 -89 2 -25 0 -45 -3 -45 -14 0 -86 88 -98 120
-25 67 -31 77 -25 40 20 -121 172 -235 243 -183 35 26 117 191 102 206 -17 17
-13 42 10 63 11 10 25 27 30 36 9 16 59 181 59 194 0 4 -125 64 -134 64 -1 0
-32 -30 -69 -68z"/>
<path d="M2245 4631 c-18 -4 -30 -13 -31 -24 -1 -9 0 -11 2 -4 7 21 73 17 80
-5 5 -18 24 -26 24 -10 0 12 -30 52 -38 51 -4 -1 -20 -4 -37 -8z"/>
<path d="M1035 4620 c-2 -4 16 -10 41 -14 96 -13 187 -70 225 -141 23 -44 23
-44 4 -82 l-19 -38 -5 29 c-9 44 -29 43 -36 -1 -10 -58 -11 -60 -25 -30 -16
32 -30 35 -30 6 0 -11 4 -17 10 -14 5 3 15 -6 22 -20 14 -31 28 -16 28 32 0
48 18 49 22 1 l3 -42 28 53 c16 29 31 50 34 47 12 -12 -29 -116 -53 -135 l-26
-20 28 -36 c22 -29 25 -40 17 -58 -10 -21 -11 -20 -31 20 -28 53 -35 57 -71
38 -33 -17 -127 -22 -101 -5 13 8 12 10 -2 10 -24 0 -83 82 -109 150 -11 30
-25 82 -29 115 l-9 60 3 -70 c3 -77 41 -178 78 -212 11 -10 24 -28 29 -40 14
-38 68 -44 155 -18 17 5 26 -1 44 -32 13 -21 25 -40 26 -42 2 -2 10 2 19 9 21
17 19 42 -5 73 l-20 26 25 36 c42 63 59 150 30 161 -8 4 -15 13 -15 20 0 23
-76 98 -127 126 -49 27 -150 51 -158 38z"/>
<path d="M2328 4563 c17 -7 15 -43 -2 -43 -10 0 -12 -7 -8 -22 4 -18 2 -20
-16 -16 -12 4 -20 2 -16 -3 9 -16 44 -10 44 8 0 9 7 24 15 33 18 20 10 50 -14
49 -10 0 -11 -2 -3 -6z"/>
<path d="M1749 4497 c-28 -22 -41 -55 -29 -77 17 -31 56 -26 75 10 19 37 19
45 -1 64 -18 19 -24 19 -45 3z m45 -40 c-6 -21 -31 -47 -45 -47 -3 0 -12 7
-19 15 -10 12 -7 19 12 37 15 15 17 18 3 8 -20 -15 -20 -15 -1 7 24 29 61 15
50 -20z"/>
<path d="M2120 4490 c-11 -11 -20 -27 -20 -35 0 -8 9 -24 20 -35 11 -11 27
-20 35 -20 8 0 24 9 35 20 11 11 20 27 20 35 0 8 -9 24 -20 35 -11 11 -27 20
-35 20 -8 0 -24 -9 -35 -20z"/>
<path d="M2345 4449 c4 -6 -2 -13 -14 -16 -14 -3 -21 -13 -21 -29 0 -26 -10
-30 -27 -13 -9 9 -16 7 -28 -5 -14 -14 -20 -14 -34 -4 -14 12 -15 11 -2 -4 10
-13 18 -15 32 -8 13 7 25 7 39 -2 17 -11 22 -10 30 2 5 8 10 22 10 31 0 9 7
19 15 23 17 6 21 36 4 36 -5 0 -7 -5 -4 -11z"/>
<path d="M114 4395 c-8 -21 4 -35 31 -35 29 0 41 16 25 35 -16 19 -49 19 -56
0z m49 -10 c-4 -15 -36 -12 -41 3 -3 9 3 13 19 10 13 -1 23 -7 22 -13z"/>
<path d="M1940 4388 c-61 -32 -83 -75 -76 -153 7 -85 33 -151 76 -196 32 -34
42 -39 83 -39 50 0 60 9 59 51 0 19 5 30 19 34 22 7 26 44 7 64 -11 10 -9 16
10 28 28 19 28 47 1 74 -11 11 -19 28 -18 37 3 32 -1 41 -21 47 -11 4 -27 20
-35 36 -14 26 -14 29 0 29 63 0 115 -77 123 -180 5 -81 -11 -145 -48 -182 -16
-15 -24 -28 -19 -28 16 0 50 40 65 76 8 19 14 66 14 111 0 91 -20 145 -69 186
-42 35 -108 37 -171 5z m78 -4 c12 -8 22 -22 22 -30 0 -8 12 -20 26 -26 21
-10 25 -17 20 -40 -4 -20 -1 -30 13 -38 33 -17 35 -43 6 -66 -23 -18 -24 -22
-11 -34 22 -18 20 -51 -3 -57 -14 -4 -21 -15 -23 -42 -3 -34 -5 -36 -41 -39
-34 -3 -44 2 -77 37 -45 47 -71 118 -73 200 -2 69 18 105 74 133 41 22 39 22
67 2z"/>
<path d="M1950 4280 c0 -5 8 -6 17 -3 13 5 15 3 9 -13 -5 -10 -8 -23 -7 -29 3
-37 15 -82 23 -92 15 -19 -7 -17 -22 2 -7 8 -18 32 -26 52 -8 25 -13 31 -14
17 0 -31 42 -88 68 -92 45 -7 50 101 6 149 -18 20 -54 26 -54 9z m70 -98 c0
-30 -4 -42 -12 -40 -15 5 -32 94 -23 117 10 26 34 -27 35 -77z"/>
<path d="M204 4382 c-25 -16 26 -82 74 -97 18 -5 22 -3 21 17 -1 16 -3 18 -6
6 -9 -36 -86 20 -79 59 5 26 5 26 -10 15z"/>
<path d="M2712 4360 c-13 -14 -28 -21 -41 -17 -32 8 -64 -21 -58 -52 3 -15 -1
-34 -9 -45 -19 -27 -18 -72 5 -115 11 -20 22 -48 25 -62 8 -38 37 -70 66 -72
14 -1 40 -11 58 -23 18 -13 40 -20 52 -17 24 6 50 40 50 65 0 13 9 18 33 19
31 2 31 2 3 6 -28 4 -28 5 -7 19 16 12 21 26 21 59 0 24 5 47 10 50 6 3 10 14
10 23 0 37 -29 -25 -32 -69 -2 -34 -8 -46 -25 -54 -14 -6 -24 -22 -28 -45 -4
-19 -11 -41 -17 -47 -16 -19 -46 -16 -65 7 -10 11 -30 20 -45 20 -34 0 -68 31
-68 63 0 12 -12 40 -25 62 -28 46 -32 81 -10 112 8 12 12 29 9 37 -10 27 15
48 48 40 24 -5 33 -1 45 16 13 18 21 20 53 15 24 -4 46 -2 59 7 29 18 50 3 78
-53 20 -38 22 -40 18 -14 -2 16 -13 41 -23 55 -19 24 -30 26 -107 20 -5 0 -22
2 -36 6 -20 4 -32 0 -47 -16z"/>
<path d="M317 4323 c-4 -3 -7 -11 -7 -17 0 -6 4 -5 9 3 10 15 41 8 41 -9 0 -5
-10 -11 -22 -11 -19 -1 -20 -2 -4 -6 26 -7 42 12 26 32 -13 16 -32 20 -43 8z"/>
<path d="M1144 4286 c18 -24 22 -36 13 -39 -6 -3 -2 -6 11 -6 28 -1 28 7 1 36
l-22 22 31 -11 c37 -14 49 -7 32 19 -10 16 -11 16 -6 1 7 -22 -13 -23 -40 -3
-36 27 -48 17 -20 -19z"/>
<path d="M2830 4311 c0 -5 8 -11 18 -13 19 -5 23 -42 7 -67 -5 -9 -3 -12 6 -9
17 6 22 68 7 85 -12 15 -38 17 -38 4z"/>
<path d="M1650 4270 c-11 -11 -20 -26 -20 -33 0 -18 21 -43 43 -51 22 -7 67
34 67 62 0 43 -55 57 -90 22z m65 -29 c0 -29 -3 -34 -28 -37 -18 -2 -30 3 -37
15 -13 25 15 63 43 59 18 -2 22 -10 22 -37z"/>
<path d="M2729 4278 c-1 -7 -1 -16 0 -20 0 -5 -3 -8 -9 -8 -5 0 -9 -10 -9 -22
1 -17 2 -19 6 -5 2 9 9 17 14 17 5 0 9 10 9 22 0 17 3 19 12 10 17 -17 33 -15
18 3 -15 18 -40 20 -41 3z"/>
<path d="M1080 4262 c0 -5 11 -15 25 -22 14 -7 25 -17 25 -22 0 -4 6 -8 13 -8
6 1 1 10 -12 20 -20 17 -20 20 -5 20 23 0 16 6 -18 14 -16 3 -28 3 -28 -2z"/>
<path d="M2634 4233 c-4 -14 -2 -34 5 -44 6 -10 11 -25 11 -33 0 -15 22 -27
48 -25 10 1 6 4 -8 8 -16 5 -24 14 -23 26 1 10 -6 24 -15 31 -14 10 -14 16 -4
38 7 15 8 26 2 26 -5 0 -13 -12 -16 -27z"/>
<path d="M1625 4160 c-4 -6 -4 -14 -1 -17 3 -4 6 -1 6 5 0 7 7 12 15 12 21 0
19 -27 -2 -39 -10 -5 -15 -13 -11 -17 12 -12 39 18 36 40 -3 23 -32 34 -43 16z"/>
<path d="M2840 4146 c0 -19 -5 -26 -19 -26 -13 0 -20 -10 -25 -31 -5 -24 -10
-30 -28 -28 -13 2 -29 0 -37 -5 -8 -5 -17 -3 -23 5 -8 12 -9 11 -5 -1 5 -20
74 -22 93 -3 8 8 14 23 14 34 0 11 4 18 9 14 12 -7 41 22 41 40 0 8 -4 17 -10
20 -6 4 -10 -5 -10 -19z"/>
<path d="M1091 3919 c-10 -24 -31 -93 -47 -152 l-27 -109 -76 2 c-42 1 -105 2
-141 1 -65 -1 -66 -1 -78 -34 -16 -44 -15 -57 3 -57 17 0 18 -6 50 -280 14
-118 28 -232 31 -252 l6 -38 -61 0 c-58 0 -81 -13 -46 -26 37 -15 8 -24 -75
-24 -49 0 -90 -3 -90 -7 0 -10 1898 -8 1907 1 3 3 -49 6 -117 6 l-123 0 23 25
c27 28 29 28 -63 26 -62 -2 -68 0 -63 16 3 10 24 119 46 242 28 153 38 226 30
231 -6 4 17 48 62 114 l73 108 -24 19 c-13 10 -27 19 -32 19 -5 0 -24 -23 -41
-52 -18 -28 -34 -46 -36 -40 -2 6 1 19 7 29 5 11 6 25 1 33 -5 8 -4 22 1 33
17 31 3 45 -60 63 -39 10 -61 22 -61 31 0 10 -11 14 -37 13 -85 -4 -113 0
-113 15 0 11 -11 15 -36 15 l-37 0 6 -52 c6 -50 -8 -59 -15 -9 -4 33 -40 45
-66 21 -11 -10 -32 -20 -48 -22 -24 -2 -29 -8 -32 -34 -2 -25 -7 -31 -21 -27
-29 7 -34 -36 -11 -102 11 -32 18 -60 16 -62 -2 -2 -22 21 -45 52 -33 44 -47
55 -70 55 -23 0 -30 -6 -35 -26 -7 -27 -1 -38 82 -138 23 -28 40 -52 38 -54
-2 -2 -19 4 -38 14 -60 32 -277 31 -361 -1 -25 -10 -23 33 4 61 19 20 20 26 9
58 l-12 36 -79 0 c-43 0 -79 3 -79 8 0 10 58 224 62 227 2 1 38 -8 80 -20 82
-24 88 -22 88 25 0 21 -79 49 -162 58 l-48 5 -19 -44z m145 4 c37 -10 64 -23
64 -30 0 -7 -3 -13 -6 -13 -19 0 -140 36 -145 44 -9 11 -31 -2 -24 -14 9 -15
-57 -248 -71 -254 -8 -3 -14 0 -14 7 0 19 60 239 71 259 12 23 43 23 125 1z
m672 -111 c2 -41 0 -52 -12 -52 -11 0 -16 -15 -19 -62 -2 -37 -4 -13 -5 55 -2
108 0 118 16 115 13 -2 18 -15 20 -56z m64 33 c10 -4 12 -37 8 -164 -3 -88 -8
-162 -11 -165 -5 -5 -29 260 -29 317 0 17 8 21 32 12z m78 -44 c0 -20 -5 -42
-11 -48 -6 -6 -20 -40 -29 -75 -22 -73 -24 -56 -10 62 13 104 15 111 35 104
10 -4 15 -19 15 -43z m-244 -23 l13 -53 -5 60 c-12 119 14 41 51 -152 42 -222
40 -244 -18 -193 -20 17 -39 41 -43 53 -4 12 -10 24 -13 27 -4 3 -28 44 -54
91 -45 84 -46 87 -28 103 19 17 20 17 34 -6 8 -12 45 -81 81 -153 37 -71 64
-119 60 -105 -4 14 -18 48 -32 75 -33 66 -90 337 -66 312 4 -4 13 -30 20 -59z
m-30 -51 c12 -48 20 -87 18 -87 -2 0 -13 20 -25 45 -12 25 -30 50 -40 56 -25
13 -26 59 -1 59 15 0 15 2 2 11 -12 8 -12 10 4 7 16 -2 24 -21 42 -91z m334
66 c0 -21 -26 -161 -41 -218 -9 -35 -31 -91 -47 -120 -3 -5 2 -4 11 4 9 7 17
20 17 27 0 17 17 18 76 3 31 -8 44 -17 44 -29 0 -15 -8 -17 -60 -14 -57 3 -89
-9 -55 -22 21 -8 4 -29 -46 -55 -80 -40 -201 -13 -235 54 -12 21 -21 27 -43
25 -35 -3 -70 21 -49 33 7 4 34 10 60 14 40 6 47 5 52 -12 12 -38 62 -75 109
-80 57 -7 114 18 115 50 0 12 16 77 36 145 41 141 41 142 21 142 -16 0 -18 12
-9 48 8 26 44 31 44 5z m64 -12 c11 -17 -6 -42 -23 -36 -13 4 -21 -6 -34 -37
-12 -30 -16 -34 -11 -14 14 74 49 118 68 87z m-471 -38 c4 -3 -1 -15 -10 -26
-17 -18 -16 -23 30 -107 26 -49 47 -91 47 -94 0 -15 -31 -3 -45 17 -21 30 -68
185 -61 203 6 15 28 19 39 7z m232 -5 c2 -7 6 -84 10 -170 6 -151 5 -158 -13
-158 -20 0 -20 -3 -38 248 -7 90 -6 92 15 92 12 0 23 -6 26 -12z m140 -26 c-3
-9 -22 -74 -42 -146 -38 -137 -40 -143 -48 -134 -3 2 2 27 10 54 23 75 16 77
-10 4 -36 -101 -29 -49 15 105 22 77 40 141 40 142 0 0 9 -1 21 -4 13 -4 18
-11 14 -21z m85 -67 c-22 -64 -64 -135 -80 -135 -16 0 -12 17 22 114 33 96 45
113 66 93 10 -11 8 -25 -8 -72z m79 38 c-24 -41 -16 -36 20 12 47 62 16 -10
-44 -102 -46 -70 -65 -92 -82 -92 -29 -1 -29 6 3 54 90 135 158 219 103 128z
m-590 -75 c39 -46 71 -88 71 -94 0 -7 -11 -14 -25 -16 -21 -4 -34 7 -90 78
-69 87 -91 138 -27 64 85 -101 102 -112 30 -20 -44 57 -52 70 -39 70 5 0 41
-37 80 -82z m-814 21 c-8 -12 -95 -12 -95 0 0 6 19 11 43 13 48 4 60 1 52 -13z
m405 -2 c0 -9 -32 -11 -121 -9 -82 2 -119 0 -115 -7 4 -7 48 -10 114 -8 65 1
108 -2 110 -8 1 -6 -62 -11 -170 -13 -136 -2 -170 0 -160 10 6 6 12 21 12 33
0 19 4 20 165 17 120 -2 165 -6 165 -15z m-392 -34 c11 -11 2 -13 -52 -13 -50
0 -66 3 -66 14 0 18 100 18 118 -1z m210 -35 l152 0 0 -29 c0 -19 -12 -40 -37
-66 -21 -21 -48 -52 -60 -68 -19 -25 -24 -28 -32 -15 -6 8 -9 20 -7 25 2 6
-24 9 -68 8 -114 -3 -116 -3 -116 -24 0 -10 -6 -19 -14 -19 -22 0 -46 28 -46
53 0 12 -5 29 -10 37 -8 12 -10 10 -10 -10 0 -14 3 -42 6 -62 6 -36 8 -38 45
-38 28 0 45 7 67 30 40 40 80 40 125 0 19 -16 38 -26 42 -22 4 4 5 -2 2 -13
-3 -11 -8 -34 -12 -51 -15 -76 -113 -107 -161 -51 -17 20 -32 27 -58 27 l-34
0 1 -74 c2 -56 5 -72 14 -64 7 6 11 30 10 59 -1 34 2 52 13 59 19 12 30 3 30
-24 0 -21 4 -22 69 -22 38 1 73 4 77 8 12 12 41 -35 42 -67 0 -16 -7 -38 -16
-48 -13 -15 -14 -22 -4 -37 20 -33 15 -50 -15 -51 -16 0 -37 -4 -48 -9 -11 -5
215 -9 533 -9 303 -1 552 -4 552 -8 -1 -30 -21 -31 -637 -30 l-621 2 -6 95
c-11 164 -17 220 -26 220 -5 0 -8 40 -7 89 1 51 -4 95 -10 103 -6 7 -12 32
-15 55 -3 42 -3 42 32 46 19 3 51 2 70 0 19 -3 104 -5 188 -5z m565 -77 c77
-38 136 -126 137 -203 l0 -38 -331 0 -331 0 7 47 c14 96 76 172 167 205 79 28
283 21 351 -11z m142 -75 c35 -46 87 -69 161 -71 51 -1 68 3 100 24 22 15 43
37 49 49 7 16 18 22 40 22 38 0 38 5 1 -200 -15 -80 -29 -160 -32 -178 -5 -34
-6 -34 -55 -30 -27 1 -49 0 -49 -4 0 -5 -45 -8 -100 -8 -105 0 -111 3 -84 45
15 22 14 25 -5 42 -17 14 -20 24 -15 53 4 19 13 39 20 43 18 10 18 31 0 46 -7
6 -16 34 -18 61 -3 30 -15 65 -32 90 -28 43 -31 50 -17 50 6 0 22 -15 36 -34z
m-517 -186 c82 0 131 -4 123 -9 -7 -5 -31 -6 -53 -3 -23 3 -49 -1 -64 -8 -19
-11 -28 -11 -48 -1 -16 9 -40 11 -75 6 -44 -6 -51 -5 -51 10 0 12 5 15 16 11
9 -3 77 -6 152 -6z m532 -6 c0 -14 -8 -16 -46 -10 -32 4 -52 1 -68 -9 -25 -17
-56 -11 -56 11 0 10 21 14 78 17 42 1 80 4 85 5 4 1 7 -5 7 -14z m-230 -1
c-19 -2 -42 -7 -50 -10 -15 -6 -120 -11 -120 -5 0 11 58 21 125 20 44 -1 64
-3 45 -5z m-320 -24 c32 1 52 1 158 -3 65 -2 30 -16 -45 -17 -43 -1 -112 -5
-153 -9 -47 -4 25 -7 190 -6 158 0 223 2 161 5 -77 5 -106 10 -109 20 -4 10 0
12 14 6 21 -8 18 -8 89 3 38 6 57 4 78 -7 22 -13 31 -13 47 -3 24 14 100 16
100 2 0 -5 -15 -10 -32 -10 -18 0 -40 -5 -48 -10 -10 -6 0 -8 33 -5 27 3 47 1
47 -5 0 -6 -31 -10 -70 -10 -100 0 -166 -17 -206 -52 -32 -28 -36 -29 -52 -15
-43 39 -114 60 -222 65 -105 5 -107 5 -102 28 4 24 33 35 67 26 11 -2 36 -4
55 -3z m85 -79 c21 -6 -3 -8 -77 -9 -60 -1 -111 -1 -115 -2 -5 0 -9 6 -11 14
-3 12 12 14 85 10 48 -3 102 -9 118 -13z m442 3 c3 -7 -14 -12 -48 -15 -65 -4
-169 6 -149 15 41 17 191 18 197 0z m-565 -33 c80 0 81 0 63 -20 -18 -20 -51
-28 -40 -10 4 6 3 10 -2 9 -4 -1 -36 -1 -70 0 -51 1 -63 4 -63 17 0 11 5 14
16 10 9 -3 52 -6 96 -6z m586 -4 c-5 -16 -258 -20 -258 -4 0 4 53 9 118 11
147 4 144 4 140 -7z m-408 -3 c0 -10 -77 -9 -87 0 -3 4 15 7 40 7 26 0 47 -3
47 -7z m7 -35 c7 -6 19 -5 32 1 13 7 28 8 44 2 17 -7 37 -5 63 4 49 18 69 18
94 3 15 -10 27 -10 55 1 46 16 95 6 95 -20 0 -19 -9 -19 -327 -17 -284 3 -328
5 -328 18 0 18 72 27 88 11 15 -15 52 -14 66 3 13 15 97 11 118 -6z"/>
<path d="M916 3018 c-6 -27 -3 -31 22 -26 20 3 20 4 2 25 l-18 22 -6 -21z"/>
<path d="M1620 3384 c0 -6 16 -25 35 -44 19 -19 35 -29 35 -24 0 6 -16 25 -35
44 -19 19 -35 29 -35 24z"/>
<path d="M1872 3250 c-19 -4 -39 -13 -45 -20 -9 -8 -5 -9 16 -1 65 25 197 2
197 -33 0 -48 -156 -71 -215 -32 -15 10 -24 13 -21 7 17 -26 70 -43 123 -39
29 3 53 1 53 -4 0 -5 16 3 35 18 41 31 44 52 11 83 -26 24 -97 34 -154 21z"/>
<path d="M885 2543 l0 -153 98 0 97 0 0 28 0 27 -71 -3 -71 -4 4 129 3 128
-30 1 -30 0 0 -153z"/>
<path d="M1345 2543 l0 -152 108 -3 107 -3 0 30 0 30 -80 -3 -80 -4 0 47 0 47
65 -4 65 -3 0 31 c0 27 -3 31 -22 28 -13 -2 -42 -5 -65 -8 l-43 -4 0 40 0 40
75 -4 c74 -3 75 -3 75 22 l0 25 -102 0 -103 0 0 -152z"/>
<path d="M1857 2610 c4 -25 2 -30 -13 -30 -14 0 -19 -7 -19 -25 0 -18 5 -25
19 -25 16 0 18 -7 14 -70 -4 -70 -3 -70 22 -70 25 0 26 0 22 70 -4 66 -3 70
17 70 16 0 21 6 21 25 0 19 -5 25 -21 25 -19 0 -21 4 -15 30 5 28 3 30 -24 30
-27 0 -29 -2 -23 -30z"/>
<path d="M2022 2579 c-12 -5 -27 -20 -34 -34 -14 -31 4 -54 55 -71 39 -13 42
-38 5 -42 -17 -2 -31 4 -40 17 l-15 21 -18 -20 c-10 -11 -16 -22 -14 -23 74
-59 159 -45 159 26 0 27 -32 57 -61 57 -9 0 -22 7 -29 15 -10 12 -9 16 4 21 9
3 23 1 31 -6 12 -10 18 -10 30 0 8 7 15 16 15 20 0 13 -66 27 -88 19z"/>
<path d="M1121 2503 c8 -98 22 -112 112 -111 l62 1 0 94 0 93 -30 0 -30 0 0
-67 c0 -66 -1 -68 -27 -71 -32 -4 -42 21 -36 93 3 44 3 45 -27 45 l-31 0 7
-77z"/>
<path d="M1609 2551 c-76 -77 17 -202 112 -151 13 7 19 7 19 0 0 -5 12 -10 28
-10 l27 0 0 95 0 95 -27 0 c-16 0 -28 -5 -28 -10 0 -7 -6 -7 -19 0 -37 19 -81
12 -112 -19z m113 -28 c22 -20 23 -51 1 -75 -33 -37 -95 -13 -95 37 0 49 56
72 94 38z"/>
</g>
</svg>
